<svg 
  xmlns="http://www.w3.org/2000/svg"
  preserveAspectRatio="xMidYMid meet"
  focusable="false">
    <defs>

      <symbol viewBox="0 0 320 512" id="angle-down">
        <path d="M143 352.3L7 216.3c-9.4-9.4-9.4-24.6 0-33.9l22.6-22.6c9.4-9.4 24.6-9.4 33.9 0l96.4 96.4 96.4-96.4c9.4-9.4 24.6-9.4 33.9 0l22.6 22.6c9.4 9.4 9.4 24.6 0 33.9l-136 136c-9.2 9.4-24.4 9.4-33.8 0z"></path>
      </symbol>

      <symbol viewBox="0 0 448 512" id="arrow-right">
        <path d="M190.5 66.9l22.2-22.2c9.4-9.4 24.6-9.4 33.9 0L441 239c9.4 9.4 9.4 24.6 0 33.9L246.6 467.3c-9.4 9.4-24.6 9.4-33.9 0l-22.2-22.2c-9.5-9.5-9.3-25 .4-34.3L311.4 296H24c-13.3 0-24-10.7-24-24v-32c0-13.3 10.7-24 24-24h287.4L190.9 101.2c-9.8-9.3-10-24.8-.4-34.3z"></path>
      </symbol>

      <symbol viewBox="0 0 448 512" id="calendar">
        <path fill="currentColor" d="M0 464c0 26.5 21.5 48 48 48h352c26.5 0 48-21.5 48-48V192H0v272zm64-192c0-8.8 7.2-16 16-16h96c8.8 0 16 7.2 16 16v96c0 8.8-7.2 16-16 16H80c-8.8 0-16-7.2-16-16v-96zM400 64h-48V16c0-8.8-7.2-16-16-16h-32c-8.8 0-16 7.2-16 16v48H160V16c0-8.8-7.2-16-16-16h-32c-8.8 0-16 7.2-16 16v48H48C21.5 64 0 85.5 0 112v48h448v-48c0-26.5-21.5-48-48-48z"/>
      </symbol>

      <symbol
        id="ifpa-logo"
        viewBox="0 0 307.15 149.44"
      >
      
        <path
          d="M21.09,104.08a.48.48,0,0,1-.08-.39l2.34-10.93a.64.64,0,0,1,.24-.41A.72.72,0,0,1,24,92.2h2a.41.41,0,0,1,.35.16.49.49,0,0,1,.07.4l-2.32,10.93a.72.72,0,0,1-.23.39.6.6,0,0,1-.42.16h-2A.47.47,0,0,1,21.09,104.08Zm2.9-14a.44.44,0,0,1-.08-.39L24.28,88a.6.6,0,0,1,.22-.41.63.63,0,0,1,.45-.17h2.13a.46.46,0,0,1,.37.16.5.5,0,0,1,.09.42l-.37,1.69a.68.68,0,0,1-.24.39.66.66,0,0,1-.43.16H24.35A.41.41,0,0,1,24,90.07Z"
        />
        <path
          d="M26.65,104.08a.48.48,0,0,1-.08-.39l2.34-10.93a.64.64,0,0,1,.24-.41.7.7,0,0,1,.43-.15H31.5a.41.41,0,0,1,.37.16.49.49,0,0,1,.07.4l-.21.95a6,6,0,0,1,1.79-1.27A5.32,5.32,0,0,1,35.76,92a4.09,4.09,0,0,1,2.91,1,3.48,3.48,0,0,1,1,2.66,8.69,8.69,0,0,1-.19,1.6l-1.39,6.51a.62.62,0,0,1-.24.4.7.7,0,0,1-.43.15H35.37a.44.44,0,0,1-.38-.16.44.44,0,0,1-.08-.39l1.34-6.37a6.55,6.55,0,0,0,.16-1.21A1.61,1.61,0,0,0,36,94.87a2.13,2.13,0,0,0-1.45-.4,3.35,3.35,0,0,0-2.2.75,3.67,3.67,0,0,0-1.2,2.1l-1.34,6.37a.67.67,0,0,1-.25.4.68.68,0,0,1-.43.15H27A.45.45,0,0,1,26.65,104.08Z"
        />
        <path
          d="M43,103.51a2.62,2.62,0,0,1-.92-2.19,6.93,6.93,0,0,1,.16-1.41l1.14-5.23H41.53a.45.45,0,0,1-.37-.16.49.49,0,0,1-.07-.4l.28-1.36a.7.7,0,0,1,.69-.56h1.81l.83-3.84a.65.65,0,0,1,.65-.56h1.92a.47.47,0,0,1,.38.16.43.43,0,0,1,.08.4L46.9,92.2h2.9a.42.42,0,0,1,.37.16.53.53,0,0,1,.07.4l-.31,1.36a.53.53,0,0,1-.22.4.73.73,0,0,1-.45.16H46.39l-1.09,5a5.15,5.15,0,0,0-.14,1.06.92.92,0,0,0,.26.72,1.33,1.33,0,0,0,.88.23H48a.45.45,0,0,1,.37.16.49.49,0,0,1,.07.4l-.3,1.46a.62.62,0,0,1-.24.4.72.72,0,0,1-.43.15H45.81A4.48,4.48,0,0,1,43,103.51Z"
        />
        <path
          d="M51.51,103.36a4.11,4.11,0,0,1-1.21-3.17,7.42,7.42,0,0,1,.12-1.41c0-.11.1-.5.26-1.16a7.56,7.56,0,0,1,2.51-4.15A6.72,6.72,0,0,1,57.58,92,4.7,4.7,0,0,1,61,93.14a4.33,4.33,0,0,1,1.17,3.2A9.79,9.79,0,0,1,62,98.08l-.11.49a.75.75,0,0,1-.25.39.67.67,0,0,1-.45.16H53.55l0,.19a4.45,4.45,0,0,0-.07.79,2.43,2.43,0,0,0,.5,1.58,1.75,1.75,0,0,0,1.45.62,3.29,3.29,0,0,0,2.38-1.07,1.53,1.53,0,0,1,.39-.31,1.17,1.17,0,0,1,.42-.06h2a.39.39,0,0,1,.32.14.38.38,0,0,1,.07.35,3.12,3.12,0,0,1-1,1.29,7.19,7.19,0,0,1-2.16,1.29,7.67,7.67,0,0,1-2.92.54A4.86,4.86,0,0,1,51.51,103.36ZM59,97.16v0a3.82,3.82,0,0,0,.1-.9,2.2,2.2,0,0,0-.51-1.54,1.89,1.89,0,0,0-1.48-.57,2.83,2.83,0,0,0-2,.82A4.12,4.12,0,0,0,54,97.11v0Z"
        />
        <path
          d="M62.4,104.08a.48.48,0,0,1-.08-.39l2.34-10.91a.69.69,0,0,1,.24-.42.68.68,0,0,1,.43-.16h1.9a.45.45,0,0,1,.38.17.49.49,0,0,1,.08.41l-.2,1A4.08,4.08,0,0,1,71,92.2h1.16a.42.42,0,0,1,.37.16.53.53,0,0,1,.07.4l-.37,1.69a.6.6,0,0,1-.22.39.7.7,0,0,1-.46.16H69.69a2.76,2.76,0,0,0-1.84.63,2.87,2.87,0,0,0-1,1.71l-1.34,6.35a.65.65,0,0,1-.25.39.63.63,0,0,1-.42.16H62.79A.47.47,0,0,1,62.4,104.08Z"
        />
        <path

          d="M71.55,104.08a.48.48,0,0,1-.08-.39l2.34-10.93a.64.64,0,0,1,.24-.41.68.68,0,0,1,.43-.15H76.4a.42.42,0,0,1,.37.16.49.49,0,0,1,.07.4l-.21.95a6,6,0,0,1,1.79-1.27A5.28,5.28,0,0,1,80.66,92a4.09,4.09,0,0,1,2.91,1,3.48,3.48,0,0,1,1,2.66,8.58,8.58,0,0,1-.18,1.6L83,103.69a.62.62,0,0,1-.24.4.7.7,0,0,1-.43.15H80.27a.44.44,0,0,1-.38-.16.42.42,0,0,1-.08-.39l1.34-6.37a6.55,6.55,0,0,0,.16-1.21,1.61,1.61,0,0,0-.45-1.24,2.15,2.15,0,0,0-1.45-.4,3.33,3.33,0,0,0-2.2.75,3.67,3.67,0,0,0-1.2,2.1l-1.35,6.37a.62.62,0,0,1-.24.4.68.68,0,0,1-.43.15H71.93A.44.44,0,0,1,71.55,104.08Z"
        />
        <path

          d="M86.77,103.36a4.3,4.3,0,0,1-1-3A8.5,8.5,0,0,1,85.87,99a13.64,13.64,0,0,1,.32-1.53,8.69,8.69,0,0,1,2.14-4A5.2,5.2,0,0,1,92.19,92a4.55,4.55,0,0,1,2.11.4,3.23,3.23,0,0,1,1.23,1.15l.16-.76a.64.64,0,0,1,.24-.41.7.7,0,0,1,.43-.15h1.85a.47.47,0,0,1,.39.16.49.49,0,0,1,.08.4l-2.32,10.93a.62.62,0,0,1-.24.4.7.7,0,0,1-.43.15H93.84a.47.47,0,0,1-.39-.16.48.48,0,0,1-.08-.39l.19-.86a6.3,6.3,0,0,1-1.66,1.23,4.88,4.88,0,0,1-2.12.41A3.9,3.9,0,0,1,86.77,103.36Zm6.28-2.24A4.28,4.28,0,0,0,94.23,99c.15-.63.28-1.23.37-1.78a3.93,3.93,0,0,0,.07-.74A2.14,2.14,0,0,0,94.18,95a1.92,1.92,0,0,0-1.55-.57q-2.34,0-3.24,3.06a11.41,11.41,0,0,0-.3,1.38,9.12,9.12,0,0,0-.09,1,2.46,2.46,0,0,0,.41,1.51,1.75,1.75,0,0,0,1.44.53A3,3,0,0,0,93.05,101.12Z"
        />
        <path

          d="M101.51,103.51a2.61,2.61,0,0,1-.91-2.19,6.29,6.29,0,0,1,.16-1.41l1.13-5.23h-1.83a.45.45,0,0,1-.37-.16.49.49,0,0,1-.06-.4l.27-1.36a.64.64,0,0,1,.25-.4.67.67,0,0,1,.45-.16h1.8l.84-3.84a.67.67,0,0,1,.23-.41.64.64,0,0,1,.42-.15h1.92a.48.48,0,0,1,.38.16.49.49,0,0,1,.08.4l-.83,3.84h2.89a.42.42,0,0,1,.37.16.49.49,0,0,1,.07.4l-.3,1.36a.56.56,0,0,1-.22.4.73.73,0,0,1-.45.16h-2.87l-1.09,5a5.15,5.15,0,0,0-.14,1.06.92.92,0,0,0,.26.72,1.33,1.33,0,0,0,.88.23h1.69a.45.45,0,0,1,.37.16.53.53,0,0,1,.07.4l-.31,1.46a.62.62,0,0,1-.24.4.68.68,0,0,1-.43.15h-1.64A4.51,4.51,0,0,1,101.51,103.51Z"
        />
        <path

          d="M108.18,104.08a.48.48,0,0,1-.08-.39l2.34-10.93a.64.64,0,0,1,.24-.41.7.7,0,0,1,.43-.15h2a.41.41,0,0,1,.35.16.49.49,0,0,1,.06.4l-2.31,10.93a.72.72,0,0,1-.23.39.63.63,0,0,1-.42.16h-2A.44.44,0,0,1,108.18,104.08Zm2.9-14a.45.45,0,0,1-.09-.39l.37-1.69a.64.64,0,0,1,.22-.41.67.67,0,0,1,.46-.17h2.13a.47.47,0,0,1,.37.16.5.5,0,0,1,.09.42l-.37,1.69a.7.7,0,0,1-.67.55h-2.16A.41.41,0,0,1,111.08,90.07Z"
        />
        <path

          d="M115.34,103.35a3.81,3.81,0,0,1-1.31-3.07,5.67,5.67,0,0,1,.09-1c.14-.82.29-1.5.44-2a7,7,0,0,1,2.32-3.85,6.72,6.72,0,0,1,4.4-1.38,5.46,5.46,0,0,1,3.65,1.13,3.89,3.89,0,0,1,1.32,3.11,8.74,8.74,0,0,1-.09,1c-.23,1.11-.38,1.79-.44,2a7.14,7.14,0,0,1-2.31,3.85,6.75,6.75,0,0,1-4.43,1.38A5.39,5.39,0,0,1,115.34,103.35Zm6-2a4.3,4.3,0,0,0,1.24-2.25q.17-.65.39-1.8a5.56,5.56,0,0,0,.1-1,1.79,1.79,0,0,0-2-2,3,3,0,0,0-2.08.79,4.49,4.49,0,0,0-1.23,2.25,10.92,10.92,0,0,0-.39,1.8,5.69,5.69,0,0,0-.09,1,1.74,1.74,0,0,0,2,2A3.07,3.07,0,0,0,121.31,101.37Z"
        />
        <path

          d="M126.84,104.08a.48.48,0,0,1-.08-.39l2.34-10.93a.64.64,0,0,1,.24-.41.72.72,0,0,1,.43-.15h1.92a.44.44,0,0,1,.38.16.53.53,0,0,1,.07.4l-.21.95a6,6,0,0,1,1.78-1.27A5.36,5.36,0,0,1,136,92a4.08,4.08,0,0,1,2.9,1,3.48,3.48,0,0,1,1,2.66,7.9,7.9,0,0,1-.19,1.6l-1.39,6.51a.62.62,0,0,1-.24.4.68.68,0,0,1-.43.15h-2.06a.44.44,0,0,1-.38-.16.48.48,0,0,1-.08-.39l1.34-6.37a6.55,6.55,0,0,0,.16-1.21,1.61,1.61,0,0,0-.45-1.24,2.12,2.12,0,0,0-1.44-.4,3.32,3.32,0,0,0-2.2.75,3.63,3.63,0,0,0-1.21,2.1L130,103.69a.62.62,0,0,1-.24.4.72.72,0,0,1-.43.15h-2.06A.47.47,0,0,1,126.84,104.08Z"
        />
        <path

          d="M142.07,103.36a4.31,4.31,0,0,1-1-3,8.61,8.61,0,0,1,.12-1.34,13.64,13.64,0,0,1,.32-1.53,8.59,8.59,0,0,1,2.13-4A5.24,5.24,0,0,1,147.49,92a4.51,4.51,0,0,1,2.1.4,3.23,3.23,0,0,1,1.23,1.15l.16-.76a.65.65,0,0,1,.25-.41.68.68,0,0,1,.43-.15h1.85a.44.44,0,0,1,.38.16.49.49,0,0,1,.08.4l-2.31,10.93a.67.67,0,0,1-.25.4.68.68,0,0,1-.43.15h-1.85a.44.44,0,0,1-.38-.16.44.44,0,0,1-.08-.39l.18-.86a6.43,6.43,0,0,1-1.65,1.23,4.91,4.91,0,0,1-2.12.41A3.88,3.88,0,0,1,142.07,103.36Zm6.27-2.24A4.28,4.28,0,0,0,149.52,99c.16-.63.28-1.23.37-1.78a4,4,0,0,0,.08-.74,2.19,2.19,0,0,0-.49-1.47,1.94,1.94,0,0,0-1.55-.57q-2.34,0-3.25,3.06a11.41,11.41,0,0,0-.3,1.38,9.12,9.12,0,0,0-.09,1,2.4,2.4,0,0,0,.42,1.51,1.72,1.72,0,0,0,1.43.53A3,3,0,0,0,148.34,101.12Z"
        />
        <path

          d="M154.21,104.08a.48.48,0,0,1-.08-.39l3.29-15.33a.67.67,0,0,1,.23-.41.66.66,0,0,1,.42-.15h2a.47.47,0,0,1,.36.16.49.49,0,0,1,.08.4l-3.27,15.33a.72.72,0,0,1-.23.39.6.6,0,0,1-.42.16h-2A.47.47,0,0,1,154.21,104.08Z"
        />
        <path

          d="M165.44,104.08a.48.48,0,0,1-.08-.39l1.93-9h-1.88a.45.45,0,0,1-.37-.16.49.49,0,0,1-.07-.4l.28-1.36a.7.7,0,0,1,.69-.56h1.85l.21-.93a4.79,4.79,0,0,1,5.17-4.16H175a.41.41,0,0,1,.37.16.47.47,0,0,1,.07.39l-.3,1.37a.68.68,0,0,1-.24.39.66.66,0,0,1-.43.16h-1.39a2,2,0,0,0-1.41.46,2.42,2.42,0,0,0-.7,1.35l-.18.81h2.89a.41.41,0,0,1,.37.16.49.49,0,0,1,.07.4l-.3,1.36a.56.56,0,0,1-.22.4.73.73,0,0,1-.45.16h-2.87l-1.92,9a.63.63,0,0,1-.25.4.68.68,0,0,1-.43.15H165.8A.44.44,0,0,1,165.44,104.08Z"
        />
        <path

          d="M174.64,103.35a3.81,3.81,0,0,1-1.31-3.07,5.67,5.67,0,0,1,.09-1c.14-.82.29-1.5.44-2a7,7,0,0,1,2.32-3.85,6.72,6.72,0,0,1,4.4-1.38,5.44,5.44,0,0,1,3.65,1.13,3.89,3.89,0,0,1,1.33,3.11,9.45,9.45,0,0,1-.1,1c-.23,1.11-.38,1.79-.44,2a7.14,7.14,0,0,1-2.31,3.85,6.73,6.73,0,0,1-4.43,1.38A5.39,5.39,0,0,1,174.64,103.35Zm6-2a4.3,4.3,0,0,0,1.24-2.25q.17-.65.39-1.8a4.78,4.78,0,0,0,.1-1,1.78,1.78,0,0,0-2-2,3,3,0,0,0-2.09.79A4.49,4.49,0,0,0,177,97.32a10.92,10.92,0,0,0-.39,1.8,5.69,5.69,0,0,0-.09,1,1.74,1.74,0,0,0,2,2A3.07,3.07,0,0,0,180.61,101.37Z"
        />
        <path

          d="M187.74,103.35a3.84,3.84,0,0,1-1.31-3.07,5.65,5.65,0,0,1,.1-1,18.32,18.32,0,0,1,.44-2,6.94,6.94,0,0,1,2.31-3.85,6.75,6.75,0,0,1,4.4-1.38,5.47,5.47,0,0,1,3.66,1.13,3.89,3.89,0,0,1,1.32,3.11,8.74,8.74,0,0,1-.09,1c-.23,1.11-.38,1.79-.44,2a7.15,7.15,0,0,1-2.32,3.85,6.7,6.7,0,0,1-4.42,1.38A5.42,5.42,0,0,1,187.74,103.35Zm6-2A4.3,4.3,0,0,0,195,99.12q.15-.65.39-1.8a5.55,5.55,0,0,0,.09-1,1.78,1.78,0,0,0-2-2,3,3,0,0,0-2.08.79,4.49,4.49,0,0,0-1.23,2.25,10.92,10.92,0,0,0-.39,1.8,4.9,4.9,0,0,0-.1,1,1.75,1.75,0,0,0,2,2A3.07,3.07,0,0,0,193.72,101.37Z"
        />
        <path

          d="M201.7,103.51a2.64,2.64,0,0,1-.91-2.19,6.29,6.29,0,0,1,.16-1.41l1.14-5.23h-1.83a.43.43,0,0,1-.37-.16.49.49,0,0,1-.07-.4l.28-1.36a.7.7,0,0,1,.69-.56h1.81l.83-3.84a.67.67,0,0,1,.23-.41.64.64,0,0,1,.42-.15H206a.47.47,0,0,1,.38.16.46.46,0,0,1,.08.4l-.83,3.84h2.89a.41.41,0,0,1,.37.16.49.49,0,0,1,.07.4l-.3,1.36a.56.56,0,0,1-.22.4.73.73,0,0,1-.45.16h-2.87l-1.09,5a5.15,5.15,0,0,0-.14,1.06.92.92,0,0,0,.26.72,1.33,1.33,0,0,0,.88.23h1.69a.45.45,0,0,1,.37.16.49.49,0,0,1,.07.4l-.3,1.46a.63.63,0,0,1-.25.4.68.68,0,0,1-.43.15h-1.64A4.51,4.51,0,0,1,201.7,103.51Z"
        />
        <path

          d="M212.8,104a2.94,2.94,0,0,1-1.31-1.19l-.19.86a.62.62,0,0,1-.24.4.7.7,0,0,1-.43.15h-1.87a.41.41,0,0,1-.37-.16.48.48,0,0,1-.08-.39l3.27-15.33a.64.64,0,0,1,.24-.41.7.7,0,0,1,.43-.15h2a.45.45,0,0,1,.37.16.53.53,0,0,1,.07.4l-1.09,5.14a6,6,0,0,1,1.63-1.14,4.73,4.73,0,0,1,2-.39,4,4,0,0,1,3.07,1.12,4.26,4.26,0,0,1,1.06,3,8.23,8.23,0,0,1-.12,1.28,15.22,15.22,0,0,1-.35,1.64,8.08,8.08,0,0,1-2.13,4,5.23,5.23,0,0,1-3.82,1.46A4.73,4.73,0,0,1,212.8,104Zm5-5.11a7.51,7.51,0,0,0,.28-1.38,10.34,10.34,0,0,0,.09-1,2.23,2.23,0,0,0-.44-1.48,1.86,1.86,0,0,0-1.5-.53,3.13,3.13,0,0,0-2.2.82,3.81,3.81,0,0,0-1.18,2c-.16.66-.28,1.26-.37,1.78a4.59,4.59,0,0,0-.07.81,2.36,2.36,0,0,0,.48,1.54,1.92,1.92,0,0,0,1.58.59Q216.82,102,217.76,98.91Z"
        />
        <path

          d="M223.32,103.36a4.31,4.31,0,0,1-1-3,8.61,8.61,0,0,1,.12-1.34,13.64,13.64,0,0,1,.32-1.53,8.59,8.59,0,0,1,2.13-4A5.24,5.24,0,0,1,228.74,92a4.58,4.58,0,0,1,2.11.4,3.28,3.28,0,0,1,1.22,1.15l.16-.76a.65.65,0,0,1,.25-.41.68.68,0,0,1,.43-.15h1.85a.44.44,0,0,1,.38.16.49.49,0,0,1,.08.4l-2.31,10.93a.63.63,0,0,1-.25.4.68.68,0,0,1-.43.15h-1.85a.44.44,0,0,1-.38-.16.48.48,0,0,1-.08-.39l.18-.86a6.43,6.43,0,0,1-1.65,1.23,4.88,4.88,0,0,1-2.12.41A3.88,3.88,0,0,1,223.32,103.36Zm6.28-2.24A4.44,4.44,0,0,0,230.78,99c.15-.63.27-1.23.37-1.78a5,5,0,0,0,.07-.74,2.19,2.19,0,0,0-.49-1.47,1.92,1.92,0,0,0-1.55-.57q-2.34,0-3.24,3.06a8.55,8.55,0,0,0-.3,1.38,7.61,7.61,0,0,0-.1,1,2.4,2.4,0,0,0,.42,1.51,1.74,1.74,0,0,0,1.43.53A3.06,3.06,0,0,0,229.6,101.12Z"
        />
        <path

          d="M236.61,108.66a3.77,3.77,0,0,1-1.59-1.55,2.64,2.64,0,0,1-.33-1.48.68.68,0,0,1,.62-.58h2.13a.51.51,0,0,1,.34.11.48.48,0,0,1,.15.38c.12,1,.79,1.46,2,1.46a3.11,3.11,0,0,0,3.34-2.76l.32-1.57a6.07,6.07,0,0,1-1.61,1.1,5,5,0,0,1-2,.38,3.66,3.66,0,0,1-4.13-4,7.27,7.27,0,0,1,.12-1.41c.06-.39.15-.81.25-1.25a8.84,8.84,0,0,1,2.13-4A5.17,5.17,0,0,1,242.17,92a4.57,4.57,0,0,1,2.14.47,3.15,3.15,0,0,1,1.31,1.24l.21-.9a.69.69,0,0,1,.24-.42.64.64,0,0,1,.43-.16h1.92a.45.45,0,0,1,.36.17.52.52,0,0,1,.08.41l-2.36,11.16a7.25,7.25,0,0,1-2.15,4,6.86,6.86,0,0,1-4.61,1.36A6.22,6.22,0,0,1,236.61,108.66Zm6.58-7.81a4.1,4.1,0,0,0,1.2-2,12.54,12.54,0,0,0,.3-1.48,3.38,3.38,0,0,0,.07-.72,2.31,2.31,0,0,0-.5-1.55,1.91,1.91,0,0,0-1.56-.6,2.83,2.83,0,0,0-2.12.86,5,5,0,0,0-1.19,2.2,6.65,6.65,0,0,0-.25,1.11,7.34,7.34,0,0,0-.1,1c0,1.35.65,2,2,2A3.12,3.12,0,0,0,243.19,100.85Z"
        />
        <path

          d="M73.77,128a.43.43,0,0,1-.08-.39L77,112.25a.59.59,0,0,1,.25-.4.68.68,0,0,1,.42-.15H79.5a.42.42,0,0,1,.37.16.47.47,0,0,1,.07.39l-.18.93a5.84,5.84,0,0,1,1.66-1.27,4.76,4.76,0,0,1,2.18-.45,4,4,0,0,1,3.06,1.14,4.36,4.36,0,0,1,1,3.06,8.13,8.13,0,0,1-.12,1.29,14.62,14.62,0,0,1-.32,1.53,8.44,8.44,0,0,1-2.13,4A5.21,5.21,0,0,1,81.28,124a4.52,4.52,0,0,1-2.09-.44,2.77,2.77,0,0,1-1.24-1.2l-1.11,5.25a.65.65,0,0,1-.25.41.68.68,0,0,1-.42.15h-2A.45.45,0,0,1,73.77,128Zm9.06-7.35a5.43,5.43,0,0,0,1.23-2.21,9.63,9.63,0,0,0,.3-1.39,6.16,6.16,0,0,0,.07-1c0-1.4-.63-2.1-1.9-2.1a3.09,3.09,0,0,0-2.24.86,4,4,0,0,0-1.18,2.08,16.73,16.73,0,0,0-.4,1.78,3.91,3.91,0,0,0-.07.67,2.25,2.25,0,0,0,.51,1.52,2,2,0,0,0,1.6.59A2.73,2.73,0,0,0,82.83,120.62Z"
        />
        <path

          d="M88.31,123.58a.49.49,0,0,1-.08-.4l3.29-15.33a.65.65,0,0,1,.23-.4.64.64,0,0,1,.42-.15h2a.41.41,0,0,1,.36.16.44.44,0,0,1,.08.39l-3.26,15.33a.71.71,0,0,1-.23.4.69.69,0,0,1-.42.16h-2A.47.47,0,0,1,88.31,123.58Z"
        />
        <path

          d="M95.22,122.86a4.32,4.32,0,0,1-1-3,8.82,8.82,0,0,1,.12-1.34,14.62,14.62,0,0,1,.32-1.53,8.73,8.73,0,0,1,2.13-4,5.21,5.21,0,0,1,3.87-1.5,4.54,4.54,0,0,1,2.11.41A3.07,3.07,0,0,1,104,113l.17-.77a.62.62,0,0,1,.24-.4.68.68,0,0,1,.43-.15h1.85a.44.44,0,0,1,.38.16.44.44,0,0,1,.08.39l-2.31,10.93a.64.64,0,0,1-.24.41.72.72,0,0,1-.43.15h-1.86a.48.48,0,0,1-.38-.16.49.49,0,0,1-.08-.4l.19-.85a6.42,6.42,0,0,1-1.66,1.22,4.74,4.74,0,0,1-2.12.42A3.88,3.88,0,0,1,95.22,122.86Zm6.28-2.25a4.28,4.28,0,0,0,1.18-2.08c.15-.64.28-1.23.37-1.79a3.85,3.85,0,0,0,.07-.74,2.16,2.16,0,0,0-.49-1.47,2,2,0,0,0-1.55-.56c-1.56,0-2.64,1-3.24,3a9.93,9.93,0,0,0-.3,1.39,9.34,9.34,0,0,0-.1,1,2.4,2.4,0,0,0,.42,1.51,1.75,1.75,0,0,0,1.44.53A3,3,0,0,0,101.5,120.61Z"
        />
        <path

          d="M108.11,128a.36.36,0,0,1-.11-.26.53.53,0,0,1,.12-.37l2.82-4.45-2.26-10.61a.51.51,0,0,1,.1-.45.59.59,0,0,1,.5-.19H111a.5.5,0,0,1,.55.44l1.53,7.55,4.79-7.55a.81.81,0,0,1,.75-.44h2a.44.44,0,0,1,.3.1.37.37,0,0,1,.12.29.56.56,0,0,1-.1.3l-9.88,15.31a.82.82,0,0,1-.74.44h-2A.36.36,0,0,1,108.11,128Z"
        />
        <path

          d="M121.69,122.86a4.11,4.11,0,0,1-1.21-3.17,7.6,7.6,0,0,1,.12-1.42c0-.11.1-.49.26-1.15a7.52,7.52,0,0,1,2.51-4.15,6.74,6.74,0,0,1,4.39-1.51,4.7,4.7,0,0,1,3.46,1.17,4.34,4.34,0,0,1,1.17,3.21,8.94,8.94,0,0,1-.19,1.74l-.11.48a.69.69,0,0,1-.25.4.67.67,0,0,1-.45.16h-7.66l0,.18a4.53,4.53,0,0,0-.07.79,2.46,2.46,0,0,0,.5,1.59,1.74,1.74,0,0,0,1.45.61,3.28,3.28,0,0,0,2.38-1.06,1.47,1.47,0,0,1,.4-.32,1.37,1.37,0,0,1,.41,0h2a.38.38,0,0,1,.39.48,3.13,3.13,0,0,1-1,1.3,7.46,7.46,0,0,1-2.15,1.28,7.57,7.57,0,0,1-2.93.55A4.86,4.86,0,0,1,121.69,122.86Zm7.53-6.21v0a4.6,4.6,0,0,0,.09-.91,2.22,2.22,0,0,0-.51-1.54,1.89,1.89,0,0,0-1.48-.57,2.84,2.84,0,0,0-2,.83,4.05,4.05,0,0,0-1.14,2.19v0Z"
        />
        <path

          d="M132.58,123.58a.49.49,0,0,1-.08-.4l2.34-10.9a.69.69,0,0,1,.24-.42.68.68,0,0,1,.43-.16h1.9a.42.42,0,0,1,.38.17.49.49,0,0,1,.08.41l-.2.94a4.1,4.1,0,0,1,3.47-1.52h1.16a.42.42,0,0,1,.37.16.52.52,0,0,1,.07.39l-.37,1.69a.6.6,0,0,1-.22.4.78.78,0,0,1-.46.16h-1.82a2.85,2.85,0,0,0-1.85.62,2.94,2.94,0,0,0-1,1.72l-1.34,6.34a.64.64,0,0,1-.25.4.69.69,0,0,1-.42.16H133A.5.5,0,0,1,132.58,123.58Z"
        />
        <path

          d="M143.71,123.51a3.53,3.53,0,0,1-1.51-1.12,2.09,2.09,0,0,1-.46-1.2.67.67,0,0,1,.21-.52.64.64,0,0,1,.44-.2h1.9a.33.33,0,0,1,.28.19l.45.44a2.36,2.36,0,0,0,.8.54,2.77,2.77,0,0,0,1.08.2,3.17,3.17,0,0,0,1.73-.44,1.39,1.39,0,0,0,.68-1.25.92.92,0,0,0-.6-.82,10.94,10.94,0,0,0-2.31-.71,5.55,5.55,0,0,1-2.4-1.05,2.23,2.23,0,0,1-.78-1.75,4,4,0,0,1,.1-.74,3.81,3.81,0,0,1,.94-1.75,5.5,5.5,0,0,1,2-1.34,6.75,6.75,0,0,1,2.73-.53,6.06,6.06,0,0,1,2.58.49,3.39,3.39,0,0,1,1.47,1.17,1.72,1.72,0,0,1,.35,1.22.55.55,0,0,1-.21.39.56.56,0,0,1-.39.16H151a.37.37,0,0,1-.34-.18l-.44-.44a2.28,2.28,0,0,0-1.74-.68,2.33,2.33,0,0,0-1.53.48,1.46,1.46,0,0,0-.58,1.17c0,.29.2.54.59.75a9.68,9.68,0,0,0,2.21.66q3.48.7,3.48,2.92a4.18,4.18,0,0,1-.07.72,4.11,4.11,0,0,1-2,2.66,7.86,7.86,0,0,1-4.19,1A6.81,6.81,0,0,1,143.71,123.51Z"
        />
        <path

          d="M157.12,107.3h2.24c.23,0,.35.1.35.3a.51.51,0,0,1-.09.32l-2.39,4a1.52,1.52,0,0,1-.36.42.82.82,0,0,1-.52.15h-1.29a.3.3,0,0,1-.28-.15.44.44,0,0,1,0-.36l1.46-3.93A1,1,0,0,1,157.12,107.3Z"
        />
        <path

          d="M164.32,122.86a4.32,4.32,0,0,1-1-3,10.14,10.14,0,0,1,.11-1.34,15,15,0,0,1,.33-1.53,8.55,8.55,0,0,1,2.13-4,5.21,5.21,0,0,1,3.87-1.5,4.53,4.53,0,0,1,2.1.41,3.16,3.16,0,0,1,1.23,1.15l.16-.77a.59.59,0,0,1,.25-.4.68.68,0,0,1,.42-.15h1.86a.45.45,0,0,1,.38.16.48.48,0,0,1,.08.39l-2.32,10.93a.64.64,0,0,1-.24.41.68.68,0,0,1-.43.15h-1.85a.47.47,0,0,1-.38-.16.46.46,0,0,1-.08-.4l.18-.85a6.38,6.38,0,0,1-1.65,1.22,4.77,4.77,0,0,1-2.12.42A3.88,3.88,0,0,1,164.32,122.86Zm6.27-2.25a4.21,4.21,0,0,0,1.18-2.08c.16-.64.28-1.23.37-1.79a3.85,3.85,0,0,0,.07-.74,2.2,2.2,0,0,0-.48-1.47,2,2,0,0,0-1.55-.56c-1.56,0-2.64,1-3.25,3a11.59,11.59,0,0,0-.3,1.39,8.76,8.76,0,0,0-.09,1,2.4,2.4,0,0,0,.42,1.51,1.72,1.72,0,0,0,1.43.53A3,3,0,0,0,170.59,120.61Z"
        />
        <path

          d="M178.44,123.51a3.56,3.56,0,0,1-1.5-1.12,2.11,2.11,0,0,1-.47-1.2.67.67,0,0,1,.21-.52.66.66,0,0,1,.44-.2H179a.33.33,0,0,1,.28.19,5.2,5.2,0,0,1,.45.44,2.36,2.36,0,0,0,.8.54,2.79,2.79,0,0,0,1.09.2,3.14,3.14,0,0,0,1.72-.44,1.4,1.4,0,0,0,.69-1.25.91.91,0,0,0-.61-.82,10.94,10.94,0,0,0-2.31-.71,5.6,5.6,0,0,1-2.4-1.05,2.25,2.25,0,0,1-.77-1.75,4.73,4.73,0,0,1,.09-.74,3.84,3.84,0,0,1,.95-1.75,5.37,5.37,0,0,1,1.94-1.34,6.83,6.83,0,0,1,2.74-.53,6.12,6.12,0,0,1,2.58.49,3.52,3.52,0,0,1,1.47,1.17,1.78,1.78,0,0,1,.35,1.22.63.63,0,0,1-.21.39.6.6,0,0,1-.4.16h-1.73a.39.39,0,0,1-.35-.18c-.09-.1-.24-.24-.44-.44a2.37,2.37,0,0,0-.71-.49,2.53,2.53,0,0,0-1-.19,2.33,2.33,0,0,0-1.53.48,1.48,1.48,0,0,0-.57,1.17c0,.29.19.54.59.75a9.52,9.52,0,0,0,2.21.66q3.47.7,3.47,2.92a3.38,3.38,0,0,1-.07.72,4.07,4.07,0,0,1-2,2.66,7.83,7.83,0,0,1-4.19,1A6.84,6.84,0,0,1,178.44,123.51Z"
        />
        <path

          d="M190.21,123.51a3.53,3.53,0,0,1-1.51-1.12,2.09,2.09,0,0,1-.46-1.2.67.67,0,0,1,.21-.52.62.62,0,0,1,.44-.2h1.89a.33.33,0,0,1,.28.19,5.2,5.2,0,0,1,.45.44,2.46,2.46,0,0,0,.8.54,2.79,2.79,0,0,0,1.09.2,3.17,3.17,0,0,0,1.73-.44,1.41,1.41,0,0,0,.68-1.25.92.92,0,0,0-.6-.82,11.08,11.08,0,0,0-2.32-.71,5.6,5.6,0,0,1-2.4-1.05,2.25,2.25,0,0,1-.77-1.75,4.73,4.73,0,0,1,.09-.74,3.93,3.93,0,0,1,.95-1.75,5.41,5.41,0,0,1,2-1.34,6.75,6.75,0,0,1,2.73-.53A6.12,6.12,0,0,1,198,112a3.39,3.39,0,0,1,1.47,1.17,1.78,1.78,0,0,1,.35,1.22.63.63,0,0,1-.21.39.56.56,0,0,1-.39.16H197.5a.4.4,0,0,1-.35-.18l-.44-.44a2.32,2.32,0,0,0-.7-.49,2.56,2.56,0,0,0-1-.19,2.3,2.3,0,0,0-1.53.48,1.46,1.46,0,0,0-.58,1.17c0,.29.19.54.59.75a9.52,9.52,0,0,0,2.21.66c2.32.47,3.47,1.44,3.47,2.92a3.38,3.38,0,0,1-.07.72,4.07,4.07,0,0,1-2,2.66,7.81,7.81,0,0,1-4.19,1A6.79,6.79,0,0,1,190.21,123.51Z"
        />
        <path

          d="M201.59,122.85a3.82,3.82,0,0,1-1.31-3.07,5.67,5.67,0,0,1,.09-1c.14-.82.29-1.5.44-2a7,7,0,0,1,2.32-3.86,6.72,6.72,0,0,1,4.4-1.38,5.41,5.41,0,0,1,3.65,1.14,3.88,3.88,0,0,1,1.32,3.1,8.87,8.87,0,0,1-.09,1c-.23,1.11-.38,1.79-.44,2a7.17,7.17,0,0,1-2.31,3.85,6.75,6.75,0,0,1-4.43,1.38A5.44,5.44,0,0,1,201.59,122.85Zm6-2a4.3,4.3,0,0,0,1.24-2.25c.11-.43.24-1,.39-1.81a5.36,5.36,0,0,0,.1-1,1.79,1.79,0,0,0-2-2,3,3,0,0,0-2.08.79,4.45,4.45,0,0,0-1.23,2.24,11,11,0,0,0-.39,1.81,5.53,5.53,0,0,0-.09,1,1.74,1.74,0,0,0,2,2A3.12,3.12,0,0,0,207.56,120.87Z"
        />
        <path

          d="M214.73,122.82a3.92,3.92,0,0,1-1.35-3.16,4.64,4.64,0,0,1,.1-1c.17-.83.3-1.45.39-1.85a7.17,7.17,0,0,1,2.36-3.94,6.61,6.61,0,0,1,4.28-1.39,5.91,5.91,0,0,1,2.83.6,3.92,3.92,0,0,1,1.63,1.47,3.29,3.29,0,0,1,.52,1.71,1.15,1.15,0,0,1,0,.3.76.76,0,0,1-.21.42.53.53,0,0,1-.39.16h-2.13a.48.48,0,0,1-.37-.12.64.64,0,0,1-.16-.37c0-1.16-.63-1.73-1.88-1.73a3,3,0,0,0-2.05.75,4.22,4.22,0,0,0-1.24,2.26c0,.1-.15.64-.35,1.62a5.53,5.53,0,0,0-.09,1,1.73,1.73,0,0,0,1.92,2,3,3,0,0,0,2.78-1.67,1.46,1.46,0,0,1,.3-.38.62.62,0,0,1,.37-.11h2.13a.42.42,0,0,1,.36.17.38.38,0,0,1,.06.39,5.44,5.44,0,0,1-1,1.77,6.12,6.12,0,0,1-2.08,1.59,7.12,7.12,0,0,1-3.24.67A5.15,5.15,0,0,1,214.73,122.82Z"
        />
        <path

          d="M225.74,123.58a.46.46,0,0,1-.08-.4L228,112.25a.62.62,0,0,1,.24-.4.68.68,0,0,1,.43-.15h2a.39.39,0,0,1,.34.16.47.47,0,0,1,.07.39l-2.31,10.93a.72.72,0,0,1-.24.4.64.64,0,0,1-.41.16h-2A.47.47,0,0,1,225.74,123.58Zm2.89-14a.49.49,0,0,1-.08-.4l.37-1.69a.62.62,0,0,1,.22-.4.64.64,0,0,1,.45-.18h2.13a.45.45,0,0,1,.37.17.44.44,0,0,1,.1.41l-.37,1.69a.74.74,0,0,1-.25.4.69.69,0,0,1-.43.16H229A.47.47,0,0,1,228.63,109.57Z"
        />
        <path

          d="M232.63,122.86a4.32,4.32,0,0,1-1-3,8.68,8.68,0,0,1,.11-1.34,12.68,12.68,0,0,1,.33-1.53,8.55,8.55,0,0,1,2.13-4,5.17,5.17,0,0,1,3.86-1.5,4.54,4.54,0,0,1,2.11.41,3.16,3.16,0,0,1,1.23,1.15l.16-.77a.62.62,0,0,1,.24-.4.7.7,0,0,1,.43-.15h1.85a.47.47,0,0,1,.39.16.48.48,0,0,1,.08.39l-2.32,10.93a.64.64,0,0,1-.24.41.7.7,0,0,1-.43.15h-1.85a.47.47,0,0,1-.38-.16.46.46,0,0,1-.09-.4l.19-.85a6.25,6.25,0,0,1-1.66,1.22,4.72,4.72,0,0,1-2.11.42A3.87,3.87,0,0,1,232.63,122.86Zm6.27-2.25a4.21,4.21,0,0,0,1.18-2.08c.16-.64.28-1.23.37-1.79a3.85,3.85,0,0,0,.07-.74,2.2,2.2,0,0,0-.48-1.47,2,2,0,0,0-1.56-.56c-1.56,0-2.64,1-3.24,3a11.59,11.59,0,0,0-.3,1.39,8.76,8.76,0,0,0-.09,1,2.46,2.46,0,0,0,.41,1.51,1.75,1.75,0,0,0,1.44.53A3,3,0,0,0,238.9,120.61Z"
        />
        <path

          d="M247.36,123a2.64,2.64,0,0,1-.91-2.19,6.29,6.29,0,0,1,.16-1.41l1.14-5.24h-1.83a.41.41,0,0,1-.37-.16.47.47,0,0,1-.07-.39l.27-1.37a.75.75,0,0,1,.25-.39.67.67,0,0,1,.45-.16h1.81l.83-3.85a.65.65,0,0,1,.23-.4.64.64,0,0,1,.42-.15h1.92a.44.44,0,0,1,.38.16.44.44,0,0,1,.08.39l-.83,3.85h2.89a.41.41,0,0,1,.37.16.47.47,0,0,1,.07.39l-.3,1.37a.56.56,0,0,1-.22.39.67.67,0,0,1-.45.16h-2.87l-1.09,5a5.24,5.24,0,0,0-.14,1.07,1,1,0,0,0,.26.72,1.33,1.33,0,0,0,.88.23h1.69a.42.42,0,0,1,.37.16.52.52,0,0,1,.07.39l-.3,1.46a.7.7,0,0,1-.25.41.68.68,0,0,1-.43.15H250.2A4.58,4.58,0,0,1,247.36,123Z"
        />
        <path

          d="M254,123.58a.49.49,0,0,1-.08-.4l2.34-10.93a.62.62,0,0,1,.24-.4.72.72,0,0,1,.43-.15h2a.41.41,0,0,1,.35.16.52.52,0,0,1,.07.39L257,123.18a.71.71,0,0,1-.23.4.65.65,0,0,1-.42.16h-2A.5.5,0,0,1,254,123.58Zm2.9-14a.46.46,0,0,1-.08-.4l.37-1.69a.58.58,0,0,1,.22-.4.64.64,0,0,1,.45-.18H260a.46.46,0,0,1,.46.58l-.37,1.69a.67.67,0,0,1-.24.4.72.72,0,0,1-.43.16h-2.15A.44.44,0,0,1,256.93,109.57Z"
        />
        <path

          d="M261.19,122.85a3.85,3.85,0,0,1-1.31-3.07,5.67,5.67,0,0,1,.09-1c.14-.82.29-1.5.44-2a7,7,0,0,1,2.32-3.86,6.72,6.72,0,0,1,4.4-1.38,5.42,5.42,0,0,1,3.66,1.14,3.88,3.88,0,0,1,1.32,3.1,9.57,9.57,0,0,1-.1,1c-.23,1.11-.38,1.79-.44,2a7.17,7.17,0,0,1-2.31,3.85,6.73,6.73,0,0,1-4.43,1.38A5.44,5.44,0,0,1,261.19,122.85Zm6-2a4.3,4.3,0,0,0,1.24-2.25c.11-.43.24-1,.39-1.81a4.62,4.62,0,0,0,.1-1,1.78,1.78,0,0,0-2-2,3,3,0,0,0-2.09.79,4.45,4.45,0,0,0-1.23,2.24,11,11,0,0,0-.39,1.81,5.53,5.53,0,0,0-.09,1,1.75,1.75,0,0,0,2,2A3.11,3.11,0,0,0,267.16,120.87Z"
        />
        <path

          d="M272.7,123.58a.43.43,0,0,1-.08-.4L275,112.25a.63.63,0,0,1,.25-.4.68.68,0,0,1,.43-.15h1.92a.42.42,0,0,1,.37.16.52.52,0,0,1,.07.39l-.21,1a6.11,6.11,0,0,1,1.78-1.26,5.22,5.22,0,0,1,2.25-.48,4.08,4.08,0,0,1,2.9,1,3.47,3.47,0,0,1,1,2.67,8.39,8.39,0,0,1-.18,1.59l-1.39,6.51a.65.65,0,0,1-.25.41.68.68,0,0,1-.43.15h-2.06a.48.48,0,0,1-.38-.16.49.49,0,0,1-.08-.4l1.34-6.37a6.81,6.81,0,0,0,.17-1.2,1.58,1.58,0,0,0-.45-1.24,2.17,2.17,0,0,0-1.45-.4,3.32,3.32,0,0,0-2.2.75,3.69,3.69,0,0,0-1.21,2.09l-1.34,6.37a.64.64,0,0,1-.24.41.7.7,0,0,1-.43.15h-2.06A.47.47,0,0,1,272.7,123.58Z"
        />
        <path

          d="M95,40.94H89a2.63,2.63,0,0,0-1.61.56A2.49,2.49,0,0,0,86.49,43L79.41,76.15a1.84,1.84,0,0,0,1.91,2.3h6a2.39,2.39,0,0,0,1.6-.62,2.56,2.56,0,0,0,.86-1.48l7-33.11a2,2,0,0,0-.3-1.59A1.71,1.71,0,0,0,95,40.94Z"
        />
        <path

          d="M127.87,48.87a2.22,2.22,0,0,0,.84-1.48l.91-4.15a2,2,0,0,0-.29-1.59,1.8,1.8,0,0,0-1.54-.71h-8.13l.29-1.25a6.77,6.77,0,0,1,1.94-3.82,5.78,5.78,0,0,1,3.94-1.24H130a2.68,2.68,0,0,0,2.53-2.09l.92-4.14a2,2,0,0,0-.3-1.6,1.79,1.79,0,0,0-1.54-.7H126c-8.84,0-14.27,4.38-16.15,13l-.4,1.82h-5.2a2.63,2.63,0,0,0-1.7.61,2.56,2.56,0,0,0-.91,1.49l-.84,4.14a2,2,0,0,0,.29,1.59,1.79,1.79,0,0,0,1.54.71h5.05L102,76.14a1.94,1.94,0,0,0,.34,1.62h0a1.85,1.85,0,0,0,1.5.69h5.82a2.63,2.63,0,0,0,1.61-.56,2.43,2.43,0,0,0,.92-1.54l5.74-26.87h8.28A2.63,2.63,0,0,0,127.87,48.87Z"
        />
        <path

          d="M155.2,40.24a15.2,15.2,0,0,0-6.82,1.39,17.65,17.65,0,0,0-4,2.78l.23-1.17a2,2,0,0,0-.29-1.59,1.79,1.79,0,0,0-1.54-.71H137.1a2.63,2.63,0,0,0-1.61.56,2.43,2.43,0,0,0-.92,1.53l-9.08,42.69a1.91,1.91,0,0,0,.34,1.61h0a1.86,1.86,0,0,0,1.56.69h6.1a2.63,2.63,0,0,0,1.61-.56,2.45,2.45,0,0,0,.93-1.53L138.33,75a9.23,9.23,0,0,0,3.27,2.75,14.28,14.28,0,0,0,6.59,1.39,16.33,16.33,0,0,0,12-4.71,26.12,26.12,0,0,0,6.59-12.3,41.19,41.19,0,0,0,1-4.68,26.24,26.24,0,0,0,.36-4c0-4-1.11-7.23-3.29-9.61S159.4,40.24,155.2,40.24Zm-2.68,27.9a7.8,7.8,0,0,1-6,2.4,5.6,5.6,0,0,1-4.45-1.61,6.31,6.31,0,0,1-1.41-4.26,9.78,9.78,0,0,1,.2-2,50.11,50.11,0,0,1,1.19-5.36,11.87,11.87,0,0,1,3.43-6A8.87,8.87,0,0,1,152,48.85c3.52,0,5.23,1.91,5.23,5.86a20.73,20.73,0,0,1-.2,2.8,30.13,30.13,0,0,1-.9,4.14A16,16,0,0,1,152.52,68.14Z"
        />
        <path

          d="M210.44,41.63a1.87,1.87,0,0,0-1.56-.69h-5.61a2.63,2.63,0,0,0-1.61.56,2.43,2.43,0,0,0-.92,1.54l-.25,1.16a10.14,10.14,0,0,0-3.22-2.67,14.23,14.23,0,0,0-6.62-1.29,16.35,16.35,0,0,0-12.08,4.68A26.67,26.67,0,0,0,172,57.25a44.89,44.89,0,0,0-1,4.68,27.72,27.72,0,0,0-.36,4.15c0,4,1.09,7.2,3.22,9.53s5.35,3.54,9.5,3.54A15.09,15.09,0,0,0,190,77.83a17.81,17.81,0,0,0,3.93-2.68l-.21,1a1.93,1.93,0,0,0,.35,1.61,1.87,1.87,0,0,0,1.56.69h5.61a2.63,2.63,0,0,0,1.61-.56,2.49,2.49,0,0,0,.93-1.54l7-33.11A1.92,1.92,0,0,0,210.44,41.63ZM181.76,61.88a32.29,32.29,0,0,1,.89-4.15c1.77-6,4.82-8.88,9.33-8.88a5.43,5.43,0,0,1,4.31,1.53,6.07,6.07,0,0,1,1.35,4.12,12,12,0,0,1-.21,2.16c-.27,1.67-.65,3.47-1.11,5.37a12.42,12.42,0,0,1-3.44,6.06,8.58,8.58,0,0,1-6.3,2.45c-1.88,0-3.21-.47-3.94-1.41a6.77,6.77,0,0,1-1.16-4.24A26,26,0,0,1,181.76,61.88Z"
        />
        <path

          d="M90.47,17.28c1.78-.07,4.65.37,5.16,1.39l.15.39a.81.81,0,0,0,.44.45.71.71,0,0,0,.32.07.81.81,0,0,0,.31-.06,7.75,7.75,0,0,1,2.44-.76h0a.8.8,0,0,0,1.06-.91,17,17,0,0,0-1.17-3.76.81.81,0,0,0-.51-.43,13.85,13.85,0,0,0-4.34-.48.89.89,0,0,0-.28.07c-3.59,1.53-4.14,2.5-4.32,2.82a.8.8,0,0,0,0,.82A.86.86,0,0,0,90.47,17.28Z"
        />
        <path

          d="M84.17,27.53a.82.82,0,0,0,.58-.52c.37-1,1.76-4,3.26-4.24l.45,0a.83.83,0,0,0,.57-.27.81.81,0,0,0,.19-.6,5.64,5.64,0,0,1,.08-2.33.83.83,0,0,0,.14-.83.8.8,0,0,0-.67-.5,20.69,20.69,0,0,0-4.24,0,.81.81,0,0,0-.53.31,12.47,12.47,0,0,0-2,3.67.85.85,0,0,0,0,.32c.32,3.74,1.14,4.53,1.41,4.79a.82.82,0,0,0,.56.23Z"
        />
        <path

          d="M100.2,24.28a.81.81,0,0,0-.23-.75,8.19,8.19,0,0,0-4.31-2.18l0-.53a.8.8,0,0,0-1.15-.72,8.65,8.65,0,0,0-3.71,3.29l-.65-.16a.83.83,0,0,0-.74.18.79.79,0,0,0-.26.71,7.4,7.4,0,0,0,2,4.21l-.33.46a.83.83,0,0,0-.09.79.82.82,0,0,0,.63.49,9.72,9.72,0,0,0,1.31.09,8.92,8.92,0,0,0,3.66-.78l.39.46a.82.82,0,0,0,.69.29.8.8,0,0,0,.63-.4,7.65,7.65,0,0,0,1-4.63l.61-.23A.78.78,0,0,0,100.2,24.28Z"
        />
        <path

          d="M106.92,21a.84.84,0,0,0-.18-.28c-1.69-1.75-3-2.67-4-2.81a.8.8,0,0,0-.74.28.83.83,0,0,0-.15.77c.43,1.28,1,4.19,0,5l-.38.29a.77.77,0,0,0-.33.57.85.85,0,0,0,.21.63,6.61,6.61,0,0,1,1.41,1.84.81.81,0,0,0,.36.73.82.82,0,0,0,.45.14.86.86,0,0,0,.37-.1,20.66,20.66,0,0,0,3.42-2.27.81.81,0,0,0,.28-.6A11.37,11.37,0,0,0,106.92,21Z"
        />
        <path

          d="M104,29.59a.82.82,0,0,0-.79.08c-1.19.83-4,2.35-5.25,1.75l-.36-.22a.81.81,0,0,0-1.11.24C95.4,33.18,95,33.38,95,33.38a.82.82,0,0,0-.58.6.81.81,0,0,0,.26.79,19.08,19.08,0,0,0,3.27,2.29.85.85,0,0,0,.38.09,1.09,1.09,0,0,0,.25,0,13.86,13.86,0,0,0,3-1.38,11.18,11.18,0,0,0,1-.71.88.88,0,0,0,.21-.22c2-3.13,1.82-4.22,1.78-4.57A.84.84,0,0,0,104,29.59Z"
        />
        <path

          d="M89.48,30.69l.13-.4A.83.83,0,0,0,89,29.24a6.76,6.76,0,0,1-2.36-.69.82.82,0,0,0-.72-.35.79.79,0,0,0-.67.43,19.12,19.12,0,0,0-1.44,3.78.86.86,0,0,0,.15.68,12.19,12.19,0,0,0,3.12,2.79.68.68,0,0,0,.27.1,18.74,18.74,0,0,0,3.34.38A3.89,3.89,0,0,0,92.53,36a.81.81,0,0,0,.1-1.41C91.48,33.87,89.22,31.92,89.48,30.69Z"
        />
      </symbol>

      <symbol
        id="footbag-worldwide"  
        viewBox="0 0 263.99 31.21"
      >
        <path
          fill="lime"
          d="M5.13,12.19a2.84,2.84,0,0,1,1,.08,4.42,4.42,0,0,1,.34.9,1.57,1.57,0,0,0-.72.23l0-.11c-.26-.5-1.45-.42-1.45-.42A2.21,2.21,0,0,1,5.13,12.19Z"
        />
        <path
          fill="lime"
          d="M5.71,13.65l-.08,0a.2.2,0,0,1-.14-.13l0-.11c-.12-.22-.8-.31-1.21-.27A.28.28,0,0,1,4,13a.25.25,0,0,1,0-.25c0-.09.16-.35,1-.79a.14.14,0,0,1,.09,0,3,3,0,0,1,1,.09.22.22,0,0,1,.16.12,5,5,0,0,1,.36,1,.29.29,0,0,1-.07.25.25.25,0,0,1-.25.05,3.45,3.45,0,0,0-.52.21A.27.27,0,0,1,5.71,13.65Zm-.87-1a1.41,1.41,0,0,1,1,.43L6.1,13a2.5,2.5,0,0,0-.18-.47,2.5,2.5,0,0,0-.72-.05A3.61,3.61,0,0,0,4.84,12.64Z"
        />
        <path
          fill="#f15a24"
          d="M3.31,24.51A.67.67,0,0,1,3.1,24V12.52H.71a.65.65,0,0,1-.5-.2.69.69,0,0,1-.21-.5V10.07a.69.69,0,0,1,.21-.5.66.66,0,0,1,.5-.21H3.1V8.18a5.13,5.13,0,0,1,1.45-4A6.34,6.34,0,0,1,8.92,2.87h2a.69.69,0,0,1,.51.21.69.69,0,0,1,.2.5V5.32a.7.7,0,0,1-.2.5A.69.69,0,0,1,11,6H9.06a2,2,0,0,0-1.62.56A2.68,2.68,0,0,0,7,8.33v1h3.69a.67.67,0,0,1,.5.21.69.69,0,0,1,.21.5v1.75a.69.69,0,0,1-.21.5.66.66,0,0,1-.5.2H7V24a.74.74,0,0,1-.19.5.67.67,0,0,1-.52.21H3.81A.66.66,0,0,1,3.31,24.51Z"
        />
        <path
          fill="#f15a24"
          d="M14.62,23.24a6.86,6.86,0,0,1-2-4.9l0-1.3,0-1.3a6.8,6.8,0,0,1,2.06-4.88A7.57,7.57,0,0,1,20,9.07a7.5,7.5,0,0,1,5.31,1.79,6.8,6.8,0,0,1,2.07,4.88c0,.24,0,.67,0,1.3s0,1.06,0,1.3a6.86,6.86,0,0,1-2,4.9A7.51,7.51,0,0,1,20,25,7.54,7.54,0,0,1,14.62,23.24Zm7.78-2.18a4.52,4.52,0,0,0,.9-2.87c0-.19,0-.58,0-1.15s0-.95,0-1.15A4.52,4.52,0,0,0,22.38,13,3,3,0,0,0,20,12a3,3,0,0,0-2.42,1,4.52,4.52,0,0,0-.92,2.88l0,1.15,0,1.15a4.47,4.47,0,0,0,.92,2.87A3,3,0,0,0,20,22,3,3,0,0,0,22.4,21.06Z"
        />
        <path
          fill="#f15a24"
          d="M31.83,23.24a6.86,6.86,0,0,1-2-4.9l0-1.3,0-1.3a6.8,6.8,0,0,1,2.07-4.88A7.54,7.54,0,0,1,37.2,9.07a7.52,7.52,0,0,1,5.32,1.79,6.8,6.8,0,0,1,2.06,4.88c0,.24,0,.67,0,1.3s0,1.06,0,1.3a6.85,6.85,0,0,1-2,4.9A7.54,7.54,0,0,1,37.2,25,7.56,7.56,0,0,1,31.83,23.24Zm7.78-2.18a4.52,4.52,0,0,0,.9-2.87c0-.19,0-.58,0-1.15s0-.95,0-1.15A4.52,4.52,0,0,0,39.59,13a3,3,0,0,0-2.39-1,3,3,0,0,0-2.42,1,4.46,4.46,0,0,0-.91,2.88l0,1.15,0,1.15a4.41,4.41,0,0,0,.91,2.87,3,3,0,0,0,2.42,1A3,3,0,0,0,39.61,21.06Z"
        />
        <path
          fill="#f15a24"
          d="M50.4,23.32A5.69,5.69,0,0,1,49,19.2V12.52H46.71a.65.65,0,0,1-.5-.2.69.69,0,0,1-.21-.5V10.07a.69.69,0,0,1,.21-.5.66.66,0,0,1,.5-.21H49V4.46A.66.66,0,0,1,49.25,4a.7.7,0,0,1,.5-.2H52.2a.7.7,0,0,1,.52.2.69.69,0,0,1,.19.51v4.9H56.6a.67.67,0,0,1,.5.21.69.69,0,0,1,.21.5v1.75a.69.69,0,0,1-.21.5.66.66,0,0,1-.5.2H52.91v6.35a3.45,3.45,0,0,0,.44,1.92,1.64,1.64,0,0,0,1.45.65h2.07a.69.69,0,0,1,.51.19.69.69,0,0,1,.19.52V24a.69.69,0,0,1-.19.5.66.66,0,0,1-.51.21H54.44A5.38,5.38,0,0,1,50.4,23.32Z"
        />
        <path
          fill="#f15a24"
          d="M63.75,22.92V24a.67.67,0,0,1-.21.5.72.72,0,0,1-.53.21H60.65a.69.69,0,0,1-.51-.21.66.66,0,0,1-.2-.5V4.46a.66.66,0,0,1,.2-.51.73.73,0,0,1,.51-.2h2.56a.7.7,0,0,1,.52.2.69.69,0,0,1,.19.51V11A6.32,6.32,0,0,1,73,11a8.06,8.06,0,0,1,1.7,5.07c0,.23,0,.56,0,1s0,.72,0,1A8.2,8.2,0,0,1,73,23.11,5.64,5.64,0,0,1,68.44,25,5.58,5.58,0,0,1,63.75,22.92Zm6.93-5c0-.2,0-.49,0-.89s0-.69,0-.88c-.13-2.6-1.26-3.9-3.36-3.9a3,3,0,0,0-2.48,1,4.1,4.1,0,0,0-.92,2.51c0,.24,0,.62,0,1.15s0,.89,0,1.12a4.59,4.59,0,0,0,.89,2.66,2.94,2.94,0,0,0,2.51,1.09C69.42,21.82,70.55,20.53,70.68,17.93Z"
        />
        <path
          fill="#f15a24"
          d="M79.44,24.41a5,5,0,0,1-2-1.64,4,4,0,0,1,.9-5.52,9.76,9.76,0,0,1,4.46-1.69l4-.59v-.62a2.56,2.56,0,0,0-.65-1.91,2.78,2.78,0,0,0-2.06-.65,3,3,0,0,0-1.57.35,5.7,5.7,0,0,0-1,.72l-.48.49a.45.45,0,0,1-.45.36h-2.3a.65.65,0,0,1-.46-.18.62.62,0,0,1-.19-.48,3.12,3.12,0,0,1,.72-1.66A5.83,5.83,0,0,1,80.6,9.76a8.31,8.31,0,0,1,3.58-.69q3.48,0,5.08,1.56a5.53,5.53,0,0,1,1.59,4.11V24a.69.69,0,0,1-.19.5.67.67,0,0,1-.52.21H87.69A.72.72,0,0,1,87,24V22.86a4.85,4.85,0,0,1-1.83,1.55,6.48,6.48,0,0,1-3,.6A6.27,6.27,0,0,1,79.44,24.41Zm6.42-3.29a4.25,4.25,0,0,0,1-3.08v-.59l-3,.48c-2.26.35-3.4,1.11-3.4,2.27a1.65,1.65,0,0,0,.79,1.46,3.26,3.26,0,0,0,1.87.52A3.59,3.59,0,0,0,85.86,21.12Z"
        />
        <path
          fill="#f15a24"
          d="M97,30.34a5.76,5.76,0,0,1-2.3-2A3.84,3.84,0,0,1,94,26.43a.64.64,0,0,1,.21-.49.68.68,0,0,1,.5-.19h2.62a.86.86,0,0,1,.46.13.92.92,0,0,1,.31.49,3.51,3.51,0,0,0,1,1.32,3.08,3.08,0,0,0,2,.54,3.67,3.67,0,0,0,2.6-.78,3.67,3.67,0,0,0,.83-2.73v-2A5.58,5.58,0,0,1,100,24.6a5.66,5.66,0,0,1-4.62-1.86,8.21,8.21,0,0,1-1.67-5.08l0-.8,0-.79A8.27,8.27,0,0,1,95.43,11,5.57,5.57,0,0,1,100,9.07a6.12,6.12,0,0,1,2.75.59,5.72,5.72,0,0,1,2,1.59V10.1a.69.69,0,0,1,.22-.53.73.73,0,0,1,.51-.21h2.43a.69.69,0,0,1,.5.21.76.76,0,0,1,.2.53l0,14.23a6.8,6.8,0,0,1-1.83,5.08q-1.83,1.8-5.52,1.8A9,9,0,0,1,97,30.34Zm6.61-9.93a4.51,4.51,0,0,0,.92-2.6,9.38,9.38,0,0,0,0-.95,9.27,9.27,0,0,0,0-.94,4.51,4.51,0,0,0-.92-2.6,2.93,2.93,0,0,0-2.48-1.06q-3.18,0-3.36,3.9l0,.7q0,4.61,3.39,4.61A2.93,2.93,0,0,0,103.63,20.41Z"
        />
        <path
          fill="#fff"
          d="M116.57,24l-4.22-13.7a.91.91,0,0,1,0-.27.63.63,0,0,1,.18-.45.57.57,0,0,1,.44-.2h2.24a.8.8,0,0,1,.52.18.78.78,0,0,1,.28.39l2.87,9.71,3-9.63a1,1,0,0,1,.31-.45.82.82,0,0,1,.57-.2h1.51a.82.82,0,0,1,.57.2.75.75,0,0,1,.28.45l3.08,9.63,2.86-9.71a.87.87,0,0,1,.26-.39.8.8,0,0,1,.54-.18h2.21a.63.63,0,0,1,.46.2.6.6,0,0,1,.19.45l-.06.27L130.45,24a1.2,1.2,0,0,1-.34.55,1,1,0,0,1-.61.19h-1.94a.93.93,0,0,1-1-.74l-3-9.27L120.47,24a1,1,0,0,1-1,.74h-1.92A1,1,0,0,1,116.57,24Z"
        />
        <path
          fill="#fff"
          d="M138.3,23.24a6.81,6.81,0,0,1-2-4.9l0-1.3,0-1.3a6.76,6.76,0,0,1,2.06-4.88,8.83,8.83,0,0,1,10.66,0,6.8,6.8,0,0,1,2.07,4.88c0,.24,0,.67,0,1.3s0,1.06,0,1.3a6.86,6.86,0,0,1-2,4.9,9,9,0,0,1-10.72,0Zm7.78-2.18a4.52,4.52,0,0,0,.9-2.87c0-.19,0-.58,0-1.15s0-.95,0-1.15a4.52,4.52,0,0,0-.91-2.88,3.42,3.42,0,0,0-4.81,0,4.46,4.46,0,0,0-.92,2.88l0,1.15,0,1.15a4.41,4.41,0,0,0,.92,2.87,3,3,0,0,0,2.42,1A3,3,0,0,0,146.08,21.06Z"
        />
        <path
          fill="#fff"
          d="M154.28,24.51a.67.67,0,0,1-.21-.5V10.1a.72.72,0,0,1,.21-.53.66.66,0,0,1,.5-.21h2.42a.71.71,0,0,1,.53.21.72.72,0,0,1,.21.53v1.21a5,5,0,0,1,4.25-2h1.24a.7.7,0,0,1,.52.2.71.71,0,0,1,.19.51v2.16a.74.74,0,0,1-.19.5.67.67,0,0,1-.52.21H161.1a2.75,2.75,0,0,0-3,3V24a.7.7,0,0,1-.2.5.69.69,0,0,1-.5.21h-2.63A.66.66,0,0,1,154.28,24.51Z"
        />
        <path
          fill="#fff"
          d="M166.38,24.51a.67.67,0,0,1-.21-.5V4.46a.66.66,0,0,1,.21-.51.72.72,0,0,1,.5-.2h2.48a.7.7,0,0,1,.52.2.69.69,0,0,1,.19.51V24a.69.69,0,0,1-.19.5.67.67,0,0,1-.52.21h-2.48A.69.69,0,0,1,166.38,24.51Z"
        />
        <path
          fill="#fff"
          d="M174.83,23.11A8.28,8.28,0,0,1,173.08,18l0-1,0-1A8.2,8.2,0,0,1,174.81,11a6.32,6.32,0,0,1,9.11,0V4.46a.66.66,0,0,1,.21-.51.69.69,0,0,1,.5-.2h2.57a.68.68,0,0,1,.51.2.69.69,0,0,1,.2.51V24a.7.7,0,0,1-.2.5.65.65,0,0,1-.51.21h-2.39a.69.69,0,0,1-.51-.21.7.7,0,0,1-.2-.5V22.92a6.39,6.39,0,0,1-9.27.19ZM183,20.75a4.8,4.8,0,0,0,.9-2.68c0-.23,0-.61,0-1.12s0-.91,0-1.15a4.1,4.1,0,0,0-.92-2.51,3,3,0,0,0-2.48-1q-3.15,0-3.36,3.9l0,.88,0,.89c.14,2.6,1.26,3.89,3.36,3.89A2.91,2.91,0,0,0,183,20.75Z"
        />
        <path
          fill="#fff"
          d="M194.76,24l-4.23-13.7a.91.91,0,0,1,0-.27.63.63,0,0,1,.18-.45.59.59,0,0,1,.44-.2h2.25a.78.78,0,0,1,.51.18.87.87,0,0,1,.29.39L197,19.64l3-9.63a1,1,0,0,1,.31-.45.85.85,0,0,1,.58-.2h1.5a.85.85,0,0,1,.58.2.8.8,0,0,1,.28.45l3.07,9.63,2.86-9.71a.82.82,0,0,1,.27-.39.77.77,0,0,1,.53-.18h2.21a.63.63,0,0,1,.46.2.6.6,0,0,1,.19.45l-.06.27L208.63,24a1.2,1.2,0,0,1-.34.55.92.92,0,0,1-.6.19h-1.95a.93.93,0,0,1-1-.74l-3-9.27L198.65,24a1,1,0,0,1-1,.74h-1.92A.94.94,0,0,1,194.76,24Z"
        />
        <path
          fill="#fff"
          d="M215.57,6.65a.69.69,0,0,1-.21-.5V4a.71.71,0,0,1,.21-.53.69.69,0,0,1,.5-.21h2.72a.72.72,0,0,1,.74.74V6.15a.7.7,0,0,1-.22.5.72.72,0,0,1-.52.2h-2.72A.68.68,0,0,1,215.57,6.65Zm.12,17.86a.67.67,0,0,1-.21-.5V10.07a.65.65,0,0,1,.21-.51.7.7,0,0,1,.5-.2h2.51a.67.67,0,0,1,.5.21.69.69,0,0,1,.21.5V24a.72.72,0,0,1-.71.71h-2.51A.67.67,0,0,1,215.69,24.51Z"
        />
        <path
          fill="#fff"
          d="M224.13,23.11A8.34,8.34,0,0,1,222.39,18l0-1,0-1A8.2,8.2,0,0,1,224.12,11a5.62,5.62,0,0,1,4.59-1.93A5.68,5.68,0,0,1,233.23,11V4.46a.69.69,0,0,1,.2-.51.73.73,0,0,1,.51-.2h2.56A.7.7,0,0,1,237,4a.69.69,0,0,1,.19.51V24a.69.69,0,0,1-.19.5.67.67,0,0,1-.52.21h-2.39a.69.69,0,0,1-.5-.21.67.67,0,0,1-.21-.5V22.92A5.58,5.58,0,0,1,228.71,25,5.64,5.64,0,0,1,224.13,23.11Zm8.2-2.36a4.8,4.8,0,0,0,.9-2.68c0-.23,0-.61,0-1.12s0-.91,0-1.15a4.1,4.1,0,0,0-.92-2.51,3,3,0,0,0-2.48-1c-2.1,0-3.23,1.3-3.36,3.9l0,.88,0,.89c.13,2.6,1.26,3.89,3.36,3.89A2.92,2.92,0,0,0,232.33,20.75Z"
        />
        <path
          fill="#fff"
          d="M242.25,23.12a7.51,7.51,0,0,1-2.05-5.37l0-.74a8.29,8.29,0,0,1,1.93-5.81,7.88,7.88,0,0,1,10.78,0,8.14,8.14,0,0,1,1.9,5.66v.62a.69.69,0,0,1-.21.51.72.72,0,0,1-.53.2h-9.8v.24a4.6,4.6,0,0,0,.9,2.73,2.77,2.77,0,0,0,2.32,1.08,3.3,3.3,0,0,0,2.74-1.36,1.58,1.58,0,0,1,.42-.4,1.2,1.2,0,0,1,.5-.07h2.6a.78.78,0,0,1,.46.14.52.52,0,0,1,.19.42,2.76,2.76,0,0,1-.84,1.67,7.06,7.06,0,0,1-2.41,1.66,8.58,8.58,0,0,1-3.63.71A7.17,7.17,0,0,1,242.25,23.12Zm8.46-7.44v-.06a4.23,4.23,0,0,0-.87-2.79,2.94,2.94,0,0,0-2.38-1,2.86,2.86,0,0,0-2.36,1,4.29,4.29,0,0,0-.86,2.79v.06Z"
        />
        <path
          fill="#fff"
          d="M256.81,1.72c.75,0,1.94.15,2.16.58l.06.16a.37.37,0,0,0,.18.19.47.47,0,0,0,.27,0,3.22,3.22,0,0,1,1-.32h0a.31.31,0,0,0,.33-.06A.35.35,0,0,0,261,2a7.71,7.71,0,0,0-.49-1.57.4.4,0,0,0-.22-.18A5.69,5.69,0,0,0,258.43,0l-.12,0c-1.49.64-1.72,1.05-1.8,1.18a.34.34,0,0,0,0,.34A.38.38,0,0,0,256.81,1.72Z"
        />
        <path
          fill="#fff"
          d="M254.18,6a.33.33,0,0,0,.24-.22c.16-.43.74-1.67,1.37-1.76H256a.37.37,0,0,0,.24-.12.33.33,0,0,0,.08-.25,2.38,2.38,0,0,1,0-1,.32.32,0,0,0,.06-.35.34.34,0,0,0-.28-.21,8.9,8.9,0,0,0-1.77,0,.36.36,0,0,0-.22.13,5.12,5.12,0,0,0-.81,1.53.32.32,0,0,0,0,.14c.14,1.56.48,1.89.59,2a.33.33,0,0,0,.24.1Z"
        />
        <path
          fill="#fff"
          d="M260.87,4.64a.34.34,0,0,0-.09-.32,3.56,3.56,0,0,0-1.8-.91V3.19a.34.34,0,0,0-.48-.3,3.6,3.6,0,0,0-1.55,1.38l-.27-.07a.35.35,0,0,0-.31.07.38.38,0,0,0-.11.3,3.09,3.09,0,0,0,.84,1.76l-.14.19a.35.35,0,0,0,0,.33.32.32,0,0,0,.26.2,3.39,3.39,0,0,0,.55,0,3.65,3.65,0,0,0,1.52-.33l.17.2a.36.36,0,0,0,.28.12.35.35,0,0,0,.27-.17A3.16,3.16,0,0,0,260.4,5l.26-.1A.32.32,0,0,0,260.87,4.64Z"
        />
        <path
          fill="#fff"
          d="M263.68,3.26a.44.44,0,0,0-.08-.11A3.54,3.54,0,0,0,261.94,2a.36.36,0,0,0-.31.12.34.34,0,0,0-.06.32c.18.53.41,1.75,0,2.1l-.16.12a.35.35,0,0,0-.14.24.39.39,0,0,0,.09.26,3.1,3.1,0,0,1,.59.77.35.35,0,0,0,.15.31.41.41,0,0,0,.19,0,.28.28,0,0,0,.15,0,7.54,7.54,0,0,0,1.43-1A.37.37,0,0,0,264,5,5,5,0,0,0,263.68,3.26Z"
        />
        <path
          fill="#fff"
          d="M262.48,6.85a.35.35,0,0,0-.33,0c-.5.34-1.69,1-2.19.73l-.15-.1a.36.36,0,0,0-.47.1,2.76,2.76,0,0,1-.66.82.33.33,0,0,0-.24.24.34.34,0,0,0,.11.34,8.59,8.59,0,0,0,1.36,1,.47.47,0,0,0,.16,0l.11,0a6,6,0,0,0,1.23-.57l.44-.3.08-.09c.83-1.31.76-1.76.74-1.91A.34.34,0,0,0,262.48,6.85Z"
        />
        <path
          fill="#fff"
          d="M256.4,7.31l.05-.17a.33.33,0,0,0-.26-.43,2.93,2.93,0,0,1-1-.29.37.37,0,0,0-.3-.15.35.35,0,0,0-.28.18A7.58,7.58,0,0,0,254,8a.35.35,0,0,0,.06.28,5.16,5.16,0,0,0,1.3,1.17l.12,0a7.49,7.49,0,0,0,1.39.16,1.58,1.58,0,0,0,.77-.14.32.32,0,0,0,.19-.28.3.3,0,0,0-.15-.3C257.24,8.64,256.29,7.82,256.4,7.31Z"
        />`;
  }
        
      </symbol>
    </defs>
  </svg>
